# xmcd
#
# Track frame offsets: 
#        150
#        15347
#        30674
#        48341
#        65792
#        85982
#        105077
#        128169
#        144115
#        162271
#        176954
#        194787
#        215043
#        236304
#
# Disc length: 3419 seconds
#
# Revision: 0
# Processed by: cddbd v1.5.2PL0 Copyright (c) Steve Scherf et al.
# Submitted via: ExactAudioCopyFreeDBPlugin 1.0
#
DISCID=bd0d590e
DTITLE=The Mama Bluegrass Band - Living in A B Movie
DYEAR=2014
DGENRE=Bluegrass
TTITLE0=The Same Soup
TTITLE1=Hey Hey
TTITLE2=Racing Bull
TTITLE3=Skin Like Leather
TTITLE4=I Got To Go (but I'll beright back)
TTITLE5=Lullaby
TTITLE6=Like Bud Spencer And Terence Hill
TTITLE7=Who Can Ask For Anithing More?
TTITLE8=The Strongest In Town
TTITLE9=Waiting On A Summer Day
TTITLE10=One More Change
TTITLE11=She Hits Me
TTITLE12=Soul Of A Man - Hind Willie Johnson
TTITLE13=Take Me To The Water
EXTD=
EXTT0=
EXTT1=
EXTT2=
EXTT3=
EXTT4=
EXTT5=
EXTT6=
EXTT7=
EXTT8=
EXTT9=
EXTT10=
EXTT11=
EXTT12=
EXTT13=
PLAYORDER=
